<?xml version="1.0" encoding="UTF-8"?>
<svg id="_圖層_2" data-name="圖層 2" xmlns="http://www.w3.org/2000/svg" viewBox="0 0 81.25 81.25">
  <defs>
    <style>
      .cls-1 {
        fill: #fff;
      }

      .cls-2 {
        fill: #312f30;
      }
    </style>
  </defs>
  <g id="_圖層_13" data-name="圖層 13">
    <circle class="cls-2" cx="40.63" cy="40.63" r="40.63"/>
    <g>
      <rect class="cls-1" x="26.26" y="15.22" width="28.52" height="3.23"/>
      <path class="cls-1" d="M57.76,43.05c-.85-5.14-5.5-8.78-10.7-8.78h-.34v-7.96h8.07v-3.23h-11.3v11.19h-5.72v-11.19h-3.57c-5.21,0-9.86,3.65-10.7,8.78-1.09,6.61,4.01,12.35,10.42,12.35h.62v.4s0,7.46,0,7.46h-7.95v3.23h7.96v1.75c0,6.16-2.73,6.95-5.11,6.95v3.23c.51,0,1.01,0,1.49,0,.47,0,.92,0,1.36,0,4.97,0,8.64-.2,11.2-2.75,1.83-1.82,2.83-4.68,3.14-9.08h.73c6.41,0,11.51-5.74,10.42-12.35Zm-14.27,5.42c0,.08,0,.16,0,3.7h0c0,5.28-.73,8.47-2.29,10.03-1.11,1.1-2.82,1.54-5.07,1.71,.99-1.52,1.64-3.72,1.64-6.85v-12.7c0-.08,0-.14,0-.14h5.72v4.25Zm3.85,3.7h-.62c0-3.54,0-3.62,0-3.7v-.06c2.02-.04,3.64-1.68,3.64-3.71s-1.62-3.67-3.64-3.71h0s-3.23,0-3.23,0h-9.35c-3.47,0-6.64-2.3-7.38-5.69-1.04-4.76,2.57-8.98,7.16-8.98h.62v3.75c-2.28,0-4.08,2.05-3.66,4.41,.32,1.8,2.01,3.02,3.84,3.02h12.4c3.47,0,6.64,2.3,7.38,5.69,1.04,4.76-2.57,8.98-7.16,8.98Z"/>
    </g>
  </g>
</svg>